<svg xmlns="http://www.w3.org/2000/svg" xmlns:xlink="http://www.w3.org/1999/xlink" width="500" zoomAndPan="magnify" viewBox="0 0 375 374.999991" height="500" preserveAspectRatio="xMidYMid meet" version="1.0"><defs><g/><clipPath id="id1"><path d="M 1.878906 79.816406 L 252 79.816406 L 252 295 L 1.878906 295 Z M 1.878906 79.816406 " clip-rule="nonzero"/></clipPath><clipPath id="id2"><path d="M 345 108 L 372.527344 108 L 372.527344 136 L 345 136 Z M 345 108 " clip-rule="nonzero"/></clipPath></defs><rect x="-37.5" width="450" fill="#ffffff" y="-37.499999" height="449.999989" fill-opacity="1"/><rect x="-37.5" width="450" fill="#000000" y="-37.499999" height="449.999989" fill-opacity="1"/><rect x="-37.5" width="450" fill="#ffffff" y="-37.499999" height="449.999989" fill-opacity="1"/><rect x="-37.5" width="450" fill="#000000" y="-37.499999" height="449.999989" fill-opacity="1"/><path fill="#ffde59" d="M 192.308594 149.105469 L 238.292969 149.105469 C 239.027344 149.105469 239.726562 149.394531 240.246094 149.914062 L 260.613281 170.261719 L 325.59375 170.261719 C 327.113281 170.261719 328.351562 171.492188 328.351562 173.019531 C 328.351562 174.542969 327.113281 175.777344 325.59375 175.777344 L 259.472656 175.777344 C 258.738281 175.777344 258.039062 175.484375 257.519531 174.964844 L 237.152344 154.617188 L 196.433594 154.617188 C 197.917969 158.460938 199.144531 162.414062 200.089844 166.425781 L 217.90625 171.300781 C 218.980469 171.597656 219.773438 172.511719 219.914062 173.617188 C 220.4375 177.757812 220.726562 181.980469 220.773438 186.167969 C 220.789062 187.6875 219.570312 188.9375 218.042969 188.953125 C 218.035156 188.953125 218.023438 188.953125 218.011719 188.953125 C 216.503906 188.953125 215.273438 187.738281 215.253906 186.226562 C 215.21875 182.863281 215.015625 179.472656 214.652344 176.132812 L 197.035156 171.308594 C 196.046875 171.035156 195.289062 170.238281 195.070312 169.230469 C 193.859375 163.65625 192.082031 158.1875 189.78125 152.972656 C 189.40625 152.121094 189.488281 151.136719 189.996094 150.355469 C 190.503906 149.574219 191.375 149.105469 192.308594 149.105469 " fill-opacity="1" fill-rule="nonzero"/><path fill="#ffde59" d="M 155.910156 108.367188 C 156.378906 108.367188 156.859375 108.484375 157.296875 108.742188 C 162.046875 111.515625 166.574219 114.742188 170.761719 118.335938 L 188.046875 111.816406 C 189.089844 111.425781 190.265625 111.695312 191.027344 112.507812 C 197.378906 119.242188 202.851562 126.753906 207.300781 134.835938 C 208.035156 136.171875 207.546875 137.84375 206.214844 138.578125 C 204.875 139.3125 203.199219 138.828125 202.464844 137.492188 C 198.535156 130.351562 193.761719 123.675781 188.257812 117.628906 L 171.167969 124.082031 C 170.203125 124.441406 169.121094 124.242188 168.355469 123.558594 C 164.089844 119.757812 159.429688 116.375 154.511719 113.5 C 153.199219 112.734375 152.753906 111.046875 153.523438 109.734375 C 154.039062 108.855469 154.960938 108.367188 155.910156 108.367188 " fill-opacity="1" fill-rule="nonzero"/><path fill="#ffde59" d="M 246.445312 203.3125 C 247.964844 203.3125 249.203125 204.542969 249.207031 206.066406 C 249.210938 207.589844 247.976562 208.824219 246.453125 208.832031 L 199.964844 208.949219 C 198.835938 213.589844 197.339844 218.148438 195.496094 222.554688 L 207.035156 236.960938 C 207.734375 237.832031 207.835938 239.035156 207.300781 240.011719 C 202.851562 248.09375 197.378906 255.609375 191.027344 262.339844 C 189.984375 263.449219 188.238281 263.5 187.128906 262.457031 C 186.015625 261.414062 185.96875 259.667969 187.011719 258.558594 C 192.621094 252.613281 197.511719 246.019531 201.566406 238.957031 L 190.152344 224.710938 C 189.511719 223.90625 189.367188 222.8125 189.78125 221.875 C 192.082031 216.660156 193.859375 211.191406 195.070312 205.617188 C 195.34375 204.351562 196.460938 203.445312 197.757812 203.441406 L 246.4375 203.3125 C 246.441406 203.3125 246.445312 203.3125 246.445312 203.3125 " fill-opacity="1" fill-rule="nonzero"/><g clip-path="url(#id1)"><path fill="#ffde59" d="M 91.488281 79.980469 C 92.40625 79.980469 93.277344 80.4375 93.792969 81.222656 L 103.933594 96.65625 C 108.886719 96.253906 113.859375 96.253906 118.8125 96.65625 L 128.957031 81.222656 C 129.566406 80.292969 130.675781 79.820312 131.777344 80.03125 C 140.851562 81.738281 149.6875 84.605469 158.035156 88.542969 C 159.042969 89.015625 159.664062 90.054688 159.613281 91.164062 L 159.1875 100.164062 C 159.113281 101.6875 157.828125 102.867188 156.300781 102.785156 C 154.777344 102.714844 153.601562 101.421875 153.675781 99.902344 L 154.011719 92.757812 C 147.140625 89.667969 139.9375 87.332031 132.546875 85.800781 L 122.519531 101.0625 C 121.957031 101.917969 120.957031 102.390625 119.941406 102.289062 C 114.261719 101.726562 108.488281 101.726562 102.808594 102.289062 C 101.789062 102.390625 100.792969 101.917969 100.230469 101.0625 L 90.199219 85.800781 C 82.8125 87.332031 75.609375 89.667969 68.738281 92.757812 L 69.601562 110.992188 C 69.648438 112.015625 69.121094 112.984375 68.234375 113.5 C 63.3125 116.375 58.660156 119.757812 54.394531 123.558594 C 53.625 124.242188 52.542969 124.445312 51.582031 124.082031 L 34.492188 117.628906 C 29.402344 123.222656 24.9375 129.355469 21.183594 135.890625 L 32.597656 150.136719 C 33.238281 150.941406 33.378906 152.035156 32.96875 152.972656 C 30.667969 158.1875 28.890625 163.660156 27.679688 169.230469 C 27.460938 170.238281 26.703125 171.035156 25.710938 171.308594 L 8.097656 176.132812 C 7.691406 179.871094 7.488281 183.65625 7.488281 187.421875 C 7.488281 191.1875 7.691406 194.976562 8.097656 198.714844 L 25.710938 203.539062 C 26.703125 203.8125 27.460938 204.609375 27.679688 205.617188 C 28.890625 211.183594 30.667969 216.660156 32.96875 221.875 C 33.378906 222.8125 33.238281 223.90625 32.597656 224.710938 L 21.183594 238.957031 C 24.9375 245.492188 29.402344 251.625 34.492188 257.21875 L 51.582031 250.765625 C 52.542969 250.402344 53.625 250.605469 54.394531 251.289062 C 58.660156 255.089844 63.320312 258.472656 68.234375 261.34375 C 69.121094 261.863281 69.648438 262.828125 69.601562 263.855469 L 68.738281 282.089844 C 75.609375 285.179688 82.8125 287.515625 90.199219 289.042969 L 100.230469 273.785156 C 100.792969 272.929688 101.789062 272.449219 102.808594 272.558594 C 108.492188 273.121094 114.261719 273.121094 119.941406 272.558594 C 120.960938 272.457031 121.953125 272.929688 122.519531 273.785156 L 132.546875 289.042969 C 139.9375 287.515625 147.136719 285.179688 154.011719 282.089844 L 153.148438 263.855469 C 153.113281 263.101562 153.386719 262.367188 153.90625 261.824219 C 154.425781 261.277344 155.152344 260.96875 155.902344 260.96875 L 176.355469 260.96875 C 177.085938 260.96875 177.789062 261.257812 178.308594 261.773438 L 194.320312 277.777344 L 248.863281 277.777344 C 250.386719 277.777344 251.621094 279.011719 251.621094 280.53125 C 251.621094 282.054688 250.386719 283.289062 248.863281 283.289062 L 193.179688 283.289062 C 192.449219 283.289062 191.746094 282.996094 191.226562 282.480469 L 175.210938 266.480469 L 158.796875 266.480469 L 159.613281 283.679688 C 159.664062 284.792969 159.042969 285.828125 158.035156 286.304688 C 149.6875 290.242188 140.851562 293.109375 131.777344 294.816406 C 130.679688 295.027344 129.566406 294.554688 128.957031 293.625 L 118.8125 278.191406 C 113.863281 278.59375 108.890625 278.59375 103.933594 278.191406 L 93.792969 293.625 C 93.183594 294.554688 92.070312 295.027344 90.972656 294.816406 C 81.898438 293.109375 73.0625 290.242188 64.714844 286.304688 C 63.703125 285.828125 63.085938 284.792969 63.132812 283.679688 L 64.011719 265.246094 C 59.78125 262.667969 55.75 259.742188 51.984375 256.511719 L 34.703125 263.03125 C 33.660156 263.421875 32.484375 263.152344 31.71875 262.339844 C 25.371094 255.609375 19.898438 248.09375 15.449219 240.011719 C 14.910156 239.035156 15.015625 237.832031 15.710938 236.960938 L 27.25 222.554688 C 25.335938 217.980469 23.800781 213.242188 22.660156 208.417969 L 4.84375 203.542969 C 3.769531 203.25 2.976562 202.335938 2.835938 201.230469 C 2.261719 196.675781 1.96875 192.03125 1.96875 187.421875 C 1.96875 182.816406 2.261719 178.171875 2.835938 173.617188 C 2.976562 172.511719 3.769531 171.597656 4.84375 171.300781 L 22.660156 166.425781 C 23.800781 161.605469 25.335938 156.863281 27.25 152.292969 L 15.710938 137.886719 C 15.015625 137.015625 14.910156 135.808594 15.449219 134.835938 C 19.898438 126.753906 25.371094 119.238281 31.71875 112.507812 C 32.484375 111.695312 33.660156 111.425781 34.703125 111.816406 L 51.984375 118.335938 C 55.746094 115.105469 59.78125 112.179688 64.011719 109.601562 L 63.132812 91.164062 C 63.085938 90.054688 63.703125 89.015625 64.714844 88.542969 C 73.058594 84.605469 81.894531 81.738281 90.972656 80.03125 C 91.148438 79.996094 91.316406 79.980469 91.488281 79.980469 " fill-opacity="1" fill-rule="nonzero"/></g><path fill="#ffde59" d="M 55.15625 191.378906 C 56.539062 191.378906 57.730469 192.40625 57.894531 193.8125 C 61.09375 220.84375 84.082031 241.226562 111.375 241.226562 C 121.515625 241.226562 131.394531 238.394531 139.945312 233.042969 C 141.234375 232.230469 142.9375 232.621094 143.75 233.914062 C 144.554688 235.203125 144.164062 236.90625 142.875 237.714844 C 133.445312 243.621094 122.554688 246.742188 111.375 246.742188 C 81.289062 246.742188 55.941406 224.265625 52.414062 194.460938 C 52.238281 192.945312 53.316406 191.578125 54.832031 191.398438 C 54.941406 191.382812 55.050781 191.378906 55.15625 191.378906 " fill-opacity="1" fill-rule="nonzero"/><path fill="#ffde59" d="M 111.375 128.105469 C 144.117188 128.105469 170.75 154.71875 170.75 187.421875 C 170.75 195.941406 168.980469 204.164062 165.488281 211.863281 C 164.863281 213.25 163.226562 213.867188 161.839844 213.238281 C 160.449219 212.605469 159.832031 210.976562 160.460938 209.585938 C 163.625 202.605469 165.230469 195.148438 165.230469 187.421875 C 165.230469 157.757812 141.070312 133.621094 111.375 133.621094 C 91.546875 133.621094 73.378906 144.457031 63.953125 161.898438 C 63.226562 163.238281 61.554688 163.738281 60.214844 163.015625 C 58.871094 162.292969 58.371094 160.617188 59.097656 159.28125 C 69.484375 140.050781 89.523438 128.105469 111.375 128.105469 " fill-opacity="1" fill-rule="nonzero"/><path fill="#ffde59" d="M 262.777344 238.523438 L 321.953125 238.523438 C 323.480469 238.523438 324.714844 239.753906 324.714844 241.277344 C 324.714844 242.796875 323.480469 244.03125 321.953125 244.03125 L 263.921875 244.03125 L 245.535156 262.402344 C 245.019531 262.917969 244.316406 263.207031 243.585938 263.207031 L 200.265625 263.207031 C 198.746094 263.207031 197.507812 261.972656 197.507812 260.449219 C 197.507812 258.929688 198.746094 257.695312 200.265625 257.695312 L 242.441406 257.695312 L 260.828125 239.328125 C 261.34375 238.8125 262.046875 238.523438 262.777344 238.523438 " fill-opacity="1" fill-rule="nonzero"/><path fill="#ffde59" d="M 269.179688 119.367188 L 346.753906 119.367188 C 348.28125 119.367188 349.515625 120.601562 349.515625 122.125 C 349.515625 123.644531 348.28125 124.882812 346.753906 124.882812 L 270.324219 124.882812 L 257.078125 138.109375 C 256.5625 138.632812 255.859375 138.921875 255.128906 138.921875 L 214.15625 138.921875 C 212.632812 138.921875 211.398438 137.6875 211.398438 136.160156 C 211.398438 134.640625 212.632812 133.40625 214.15625 133.40625 L 253.984375 133.40625 L 267.226562 120.175781 C 267.746094 119.65625 268.449219 119.367188 269.179688 119.367188 " fill-opacity="1" fill-rule="nonzero"/><path fill="#ffde59" d="M 156.449219 97.488281 L 233.332031 97.488281 C 234.859375 97.488281 236.09375 98.722656 236.09375 100.246094 C 236.09375 101.769531 234.859375 103.003906 233.332031 103.003906 L 156.449219 103.003906 C 154.925781 103.003906 153.6875 101.769531 153.6875 100.246094 C 153.6875 98.722656 154.925781 97.488281 156.449219 97.488281 " fill-opacity="1" fill-rule="nonzero"/><path fill="#ffde59" d="M 332.414062 248.972656 C 336.660156 248.972656 340.117188 245.519531 340.117188 241.277344 C 340.117188 237.035156 336.660156 233.582031 332.414062 233.582031 C 328.167969 233.582031 324.714844 237.035156 324.714844 241.277344 C 324.714844 245.519531 328.167969 248.972656 332.414062 248.972656 Z M 332.414062 228.070312 C 339.703125 228.070312 345.632812 233.996094 345.632812 241.277344 C 345.632812 248.558594 339.703125 254.484375 332.414062 254.484375 C 325.125 254.484375 319.195312 248.558594 319.195312 241.277344 C 319.195312 233.996094 325.125 228.070312 332.414062 228.070312 " fill-opacity="1" fill-rule="nonzero"/><path fill="#ffde59" d="M 256.90625 213.765625 C 261.152344 213.765625 264.609375 210.3125 264.609375 206.074219 C 264.609375 201.832031 261.152344 198.378906 256.90625 198.378906 C 252.660156 198.378906 249.207031 201.832031 249.207031 206.074219 C 249.207031 210.3125 252.660156 213.765625 256.90625 213.765625 Z M 256.90625 192.867188 C 264.195312 192.867188 270.125 198.792969 270.125 206.074219 C 270.125 213.355469 264.195312 219.277344 256.90625 219.277344 C 249.617188 219.277344 243.6875 213.355469 243.6875 206.074219 C 243.6875 198.792969 249.617188 192.867188 256.90625 192.867188 " fill-opacity="1" fill-rule="nonzero"/><path fill="#ffde59" d="M 55.152344 191.335938 C 57.769531 191.335938 59.902344 189.210938 59.902344 186.59375 C 59.902344 183.980469 57.769531 181.855469 55.152344 181.855469 C 52.535156 181.855469 50.40625 183.980469 50.40625 186.59375 C 50.40625 189.210938 52.535156 191.335938 55.152344 191.335938 Z M 55.152344 177.441406 C 60.207031 177.441406 64.316406 181.546875 64.316406 186.59375 C 64.316406 191.640625 60.207031 195.75 55.152344 195.75 C 50.101562 195.75 45.992188 191.640625 45.992188 186.59375 C 45.992188 181.546875 50.101562 177.441406 55.152344 177.441406 " fill-opacity="1" fill-rule="nonzero"/><path fill="#ffde59" d="M 159.0625 222.367188 C 161.679688 222.367188 163.804688 220.242188 163.804688 217.628906 C 163.804688 215.011719 161.679688 212.882812 159.0625 212.882812 C 156.445312 212.882812 154.3125 215.011719 154.3125 217.628906 C 154.3125 220.242188 156.445312 222.367188 159.0625 222.367188 Z M 159.0625 208.46875 C 164.113281 208.46875 168.222656 212.578125 168.222656 217.628906 C 168.222656 222.671875 164.113281 226.777344 159.0625 226.777344 C 154.011719 226.777344 149.898438 222.671875 149.898438 217.628906 C 149.898438 212.578125 154.011719 208.46875 159.0625 208.46875 " fill-opacity="1" fill-rule="nonzero"/><path fill="#ffde59" d="M 246.445312 107.9375 C 250.691406 107.9375 254.148438 104.488281 254.148438 100.246094 C 254.148438 96.003906 250.691406 92.554688 246.445312 92.554688 C 242.199219 92.554688 238.746094 96.003906 238.746094 100.246094 C 238.746094 104.488281 242.199219 107.9375 246.445312 107.9375 Z M 246.445312 87.039062 C 253.734375 87.039062 259.664062 92.960938 259.664062 100.246094 C 259.664062 107.53125 253.734375 113.449219 246.445312 113.449219 C 239.15625 113.449219 233.226562 107.53125 233.226562 100.246094 C 233.226562 92.960938 239.15625 87.039062 246.445312 87.039062 " fill-opacity="1" fill-rule="nonzero"/><path fill="#ffde59" d="M 336.050781 180.335938 C 340.296875 180.335938 343.753906 176.882812 343.753906 172.640625 C 343.753906 168.398438 340.296875 164.945312 336.050781 164.945312 C 331.804688 164.945312 328.351562 168.398438 328.351562 172.640625 C 328.351562 176.882812 331.804688 180.335938 336.050781 180.335938 Z M 336.050781 159.433594 C 343.339844 159.433594 349.273438 165.359375 349.273438 172.640625 C 349.273438 179.921875 343.339844 185.847656 336.050781 185.847656 C 328.765625 185.847656 322.832031 179.921875 322.832031 172.640625 C 322.832031 165.359375 328.765625 159.433594 336.050781 159.433594 " fill-opacity="1" fill-rule="nonzero"/><g clip-path="url(#id2)"><path fill="#ffde59" d="M 359.179688 129.816406 C 363.425781 129.816406 366.882812 126.363281 366.882812 122.125 C 366.882812 117.882812 363.425781 114.429688 359.179688 114.429688 C 354.933594 114.429688 351.480469 117.882812 351.480469 122.125 C 351.480469 126.363281 354.933594 129.816406 359.179688 129.816406 Z M 359.179688 108.917969 C 366.46875 108.917969 372.402344 114.84375 372.402344 122.125 C 372.402344 129.40625 366.46875 135.332031 359.179688 135.332031 C 351.890625 135.332031 345.960938 129.40625 345.960938 122.125 C 345.960938 114.84375 351.890625 108.917969 359.179688 108.917969 " fill-opacity="1" fill-rule="nonzero"/></g><path fill="#ffde59" d="M 261.109375 288.097656 C 265.355469 288.097656 268.8125 284.644531 268.8125 280.402344 C 268.8125 276.160156 265.355469 272.707031 261.109375 272.707031 C 256.863281 272.707031 253.410156 276.160156 253.410156 280.402344 C 253.410156 284.644531 256.863281 288.097656 261.109375 288.097656 Z M 261.109375 267.195312 C 268.398438 267.195312 274.332031 273.121094 274.332031 280.402344 C 274.332031 287.683594 268.398438 293.609375 261.109375 293.609375 C 253.820312 293.609375 247.890625 287.683594 247.890625 280.402344 C 247.890625 273.121094 253.820312 267.195312 261.109375 267.195312 " fill-opacity="1" fill-rule="nonzero"/><g fill="#ffde59" fill-opacity="1"><g transform="translate(72.270373, 203.861032)"><g><path d="M 21.203125 0.703125 C 15.484375 0.703125 10.894531 -0.941406 7.4375 -4.234375 C 3.976562 -7.523438 2.25 -11.96875 2.25 -17.5625 C 2.25 -23.15625 3.976562 -27.585938 7.4375 -30.859375 C 10.894531 -34.140625 15.582031 -35.78125 21.5 -35.78125 C 24.164062 -35.78125 26.75 -35.519531 29.25 -35 C 31.757812 -34.476562 33.785156 -33.835938 35.328125 -33.078125 L 35.421875 -24.453125 L 34.96875 -24.453125 C 34.101562 -27.691406 32.617188 -30.035156 30.515625 -31.484375 C 28.410156 -32.941406 25.90625 -33.671875 23 -33.671875 C 18.957031 -33.671875 15.847656 -32.222656 13.671875 -29.328125 C 11.503906 -26.441406 10.421875 -22.484375 10.421875 -17.453125 C 10.421875 -12.429688 11.414062 -8.5 13.40625 -5.65625 C 15.394531 -2.820312 18.207031 -1.40625 21.84375 -1.40625 C 24.488281 -1.40625 26.695312 -2.15625 28.46875 -3.65625 C 29.332031 -4.425781 29.960938 -5.328125 30.359375 -6.359375 L 30.359375 -14.03125 C 30.359375 -14.769531 30.132812 -15.328125 29.6875 -15.703125 C 29.238281 -16.085938 28.597656 -16.28125 27.765625 -16.28125 L 26.953125 -16.28125 L 26.953125 -16.78125 L 41.046875 -16.78125 L 41.046875 -16.28125 L 40.28125 -16.28125 C 39.476562 -16.28125 38.859375 -16.085938 38.421875 -15.703125 C 37.992188 -15.328125 37.78125 -14.769531 37.78125 -14.03125 L 37.78125 -5.765625 C 36.476562 -4.054688 34.320312 -2.550781 31.3125 -1.25 C 28.3125 0.0507812 24.941406 0.703125 21.203125 0.703125 Z M 21.203125 0.703125 "/></g></g></g><g fill="#ffde59" fill-opacity="1"><g transform="translate(114.152179, 203.861032)"><g><path d="M 27.203125 -35.078125 L 37.921875 -35.078125 L 37.921875 -34.578125 L 37.484375 -34.578125 C 36.710938 -34.578125 35.941406 -34.34375 35.171875 -33.875 C 34.398438 -33.40625 33.765625 -32.703125 33.265625 -31.765625 L 21.390625 -5.5625 C 19.859375 -2.25 19.039062 -0.0625 18.9375 1 L 18.484375 1 L 3.296875 -31.71875 C 2.796875 -32.65625 2.160156 -33.363281 1.390625 -33.84375 C 0.628906 -34.332031 -0.148438 -34.578125 -0.953125 -34.578125 L -1.359375 -34.578125 L -1.359375 -35.078125 L 14.578125 -35.078125 L 14.578125 -34.578125 L 14.171875 -34.578125 C 13.441406 -34.578125 12.898438 -34.347656 12.546875 -33.890625 C 12.191406 -33.441406 12.015625 -33.015625 12.015625 -32.609375 C 12.015625 -32.210938 12.082031 -31.816406 12.21875 -31.421875 L 20.734375 -10.71875 L 29.5625 -31.421875 C 29.726562 -31.847656 29.8125 -32.253906 29.8125 -32.640625 C 29.8125 -33.023438 29.632812 -33.441406 29.28125 -33.890625 C 28.9375 -34.347656 28.394531 -34.578125 27.65625 -34.578125 L 27.203125 -34.578125 Z M 27.203125 -35.078125 "/></g></g></g></svg>